# xmcd
#
# Track frame offsets: 
#        150
#        18951
#        36172
#        52071
#        68755
#        87600
#        108048
#        122423
#
# Disc length: 1811 seconds
#
# Revision: 0
# Processed by: cddbd v1.5.2PL0 Copyright (c) Steve Scherf et al.
# Submitted via: ExactAudioCopyFreeDBPlugin 1.0
#
DISCID=61071108
DTITLE=Red Dirt Revelators - Evolution
DYEAR=2012
DGENRE=
TTITLE0=Beautiful
TTITLE1=Maxine's
TTITLE2=Rize
TTITLE3=She Don't Worry
TTITLE4=Change
TTITLE5=Gold n Guns
TTITLE6=The Rake
TTITLE7=Grinder
EXTD=
EXTT0=
EXTT1=
EXTT2=
EXTT3=
EXTT4=
EXTT5=
EXTT6=
EXTT7=
PLAYORDER=
